 <svg
      xmlns="http://www.w3.org/2000/svg"
      width="239"
      height="14"
      viewBox="0 0 239 14"
      fill="none"
      data-v-1cc845ee=""
    >
      <g clip-path="url(#clip0_591_1617)">
        <path
          d="M22.2864 0H23.3432V6.43951H38.2568V0H39.3136V14H38.2568V7.40741H23.3432V14H22.2864V0Z"
          fill="#E50012"
        ></path>
        <path
          d="M7.75309 0.962963H0V0H16.5975V0.962963H8.81482V13.9951H7.75803V0.962963H7.75309Z"
          fill="#E50012"
        ></path>
        <path d="M48.6124 0H49.6691V14H48.6124V0Z" fill="#E50012"></path>
        <path
          d="M167.032 0H168.089V13.0321H181.23V13.9951H167.032V0Z"
          fill="#E50012"
        ></path>
        <path d="M186.716 0H187.773V14H186.716V0Z" fill="#E50012"></path>
        <path
          d="M237.472 6.43951H223.057V7.40248H237.472V6.43951Z"
          fill="#E50012"
        ></path>
        <path d="M238.326 0H222.736V0.962963H238.326V0Z" fill="#E50012"></path>
        <path
          d="M238.484 13.0321H222.736V13.9951H238.484V13.0321Z"
          fill="#E50012"
        ></path>
        <path
          d="M127.659 6.43951H113.244V7.40248H127.659V6.43951Z"
          fill="#E50012"
        ></path>
        <path d="M128.509 0H112.919V0.962963H128.509V0Z" fill="#E50012"></path>
        <path
          d="M128.667 13.0321H112.919V13.9951H128.667V13.0321Z"
          fill="#E50012"
        ></path>
        <path
          d="M92.721 0.962963H107.798V0H91.6642V14H92.721V0.962963Z"
          fill="#E50012"
        ></path>
        <path
          d="M58.9679 0V14H60.0247V0.962963H75.2V14H76.2568V0H58.9679Z"
          fill="#E50012"
        ></path>
        <path
          d="M213.393 0H198.217H197.16V14H198.217V12.1728V7.40247V6.43951V4.53827V0.962963H213.393V4.53827V6.43951V7.40247V12.1728V14H214.454V0H213.393Z"
          fill="#E50012"
        ></path>
        <path
          d="M147.358 0H136.998V14H147.358C151.225 14 154.356 10.8642 154.356 7.00247C154.356 3.14074 151.225 0 147.358 0ZM147.358 13.0321H138.054V0.962963H147.358C150.691 0.962963 153.393 3.6642 153.393 6.99753C153.393 10.3309 150.691 13.0321 147.358 13.0321Z"
          fill="#E50012"
        ></path>
      </g>
      <defs>
        <clipPath id="clip0_591_1617">
          <rect width="238.484" height="14" fill="white"></rect>
        </clipPath>
      </defs>
    </svg>